<svg width="800" height="800" viewBox="0 0 800 800" fill="none" xmlns="http://www.w3.org/2000/svg">
<path d="M434.672 636.833L399.213 603.58" stroke="#9E9E9E" stroke-width="1.33333" stroke-miterlimit="10"/>
<path d="M400.309 637.941L433.571 602.485" stroke="#9E9E9E" stroke-width="1.33333" stroke-miterlimit="10"/>
<path d="M82.1785 744.757L46.7212 711.504" stroke="#9E9E9E" stroke-width="1.33333" stroke-miterlimit="10"/>
<path d="M47.8176 745.865L81.078 710.411" stroke="#9E9E9E" stroke-width="1.33333" stroke-miterlimit="10"/>
<path d="M190.053 508.995L154.596 475.741" stroke="#9E9E9E" stroke-width="1.33333" stroke-miterlimit="10"/>
<path d="M155.692 510.103L188.953 474.647" stroke="#9E9E9E" stroke-width="1.33333" stroke-miterlimit="10"/>
<path d="M759.604 66.3481L724.145 33.0935" stroke="#9E9E9E" stroke-width="1.33333" stroke-miterlimit="10"/>
<path d="M725.243 67.4561L758.503 32.0001" stroke="#9E9E9E" stroke-width="1.33333" stroke-miterlimit="10"/>
<path d="M276.165 88.7612L240.708 55.5078" stroke="#9E9E9E" stroke-width="1.33333" stroke-miterlimit="10"/>
<path d="M241.804 89.8691L275.065 54.4131" stroke="#9E9E9E" stroke-width="1.33333" stroke-miterlimit="10"/>
<path d="M682.2 155.917L668.197 131.701L654.24 155.93L640.268 180.165L668.232 180.141L696.2 180.129L682.2 155.917" fill="#9E9E9E"/>
<path d="M160.351 664.343L146.348 640.127L132.389 664.356L118.417 688.589L146.381 688.567L174.351 688.553L160.351 664.343" fill="#9E9E9E"/>
<path d="M190.571 636.785L188.568 633.321L186.571 636.788" stroke="#9E9E9E" stroke-width="1.33333" stroke-miterlimit="10"/>
<path d="M182.489 643.87L180.451 647.41L176.364 654.496" stroke="#9E9E9E" stroke-width="1.33333" stroke-miterlimit="10" stroke-dasharray="8.18 8.18"/>
<path d="M174.323 658.037L172.325 661.504L176.325 661.501" stroke="#9E9E9E" stroke-width="1.33333" stroke-miterlimit="10"/>
<path d="M184.5 661.493L188.587 661.489L196.763 661.485" stroke="#9E9E9E" stroke-width="1.33333" stroke-miterlimit="10" stroke-dasharray="8.18 8.18"/>
<path d="M200.852 661.482L204.852 661.481L202.849 658.02" stroke="#9E9E9E" stroke-width="1.33333" stroke-miterlimit="10"/>
<path d="M198.755 650.941L196.709 647.404L192.616 640.324" stroke="#9E9E9E" stroke-width="1.33333" stroke-miterlimit="10" stroke-dasharray="8.18 8.18"/>
<path d="M385.295 60.4493L382.156 55.02L379.025 60.4519L375.893 65.8853L382.163 65.8799L388.433 65.8759L385.295 60.4493Z" stroke="#9E9E9E" stroke-width="1.33333" stroke-miterlimit="10"/>
<path d="M162.396 38.8238L159.257 33.3945L156.128 38.8264L152.995 44.2598L159.264 44.2544L165.535 44.2518L162.396 38.8238Z" stroke="#9E9E9E" stroke-width="1.33333" stroke-miterlimit="10"/>
<path d="M147.555 399.128L144.416 393.697L141.287 399.131L138.153 404.564L144.423 404.559L150.693 404.555L147.555 399.128Z" stroke="#9E9E9E" stroke-width="1.33333" stroke-miterlimit="10"/>
<path d="M749.703 469.499L746.565 464.069L743.435 469.501L740.301 474.935L746.573 474.929L752.844 474.925L749.703 469.499Z" stroke="#9E9E9E" stroke-width="1.33333" stroke-miterlimit="10"/>
<path d="M515.177 662.783L512.039 657.353L508.909 662.785L505.776 668.219L512.047 668.213L518.317 668.209L515.177 662.783Z" stroke="#9E9E9E" stroke-width="1.33333" stroke-miterlimit="10"/>
<path d="M411.088 55.0171L407.951 49.5865L404.82 55.0198L401.688 60.4531L407.956 60.4478L414.227 60.4438L411.088 55.0171" fill="#9E9E9E"/>
<path d="M427.929 95.5894L424.792 90.16L421.661 95.5921L418.528 101.025L424.8 101.02L431.071 101.017L427.929 95.5894" fill="#9E9E9E"/>
<path d="M152.135 362.427L148.997 356.997L145.867 362.429L142.735 367.863L149.004 367.859L155.275 367.855L152.135 362.427" fill="#9E9E9E"/>
<path d="M749.703 433.318L746.565 427.889L743.435 433.321L740.301 438.754L746.573 438.749L752.844 438.746L749.703 433.318Z" fill="#9E9E9E"/>
<path d="M772.355 723.117L769.216 717.688L766.085 723.12L762.953 728.553L769.221 728.548L775.492 728.544L772.355 723.117" fill="#9E9E9E"/>
<path d="M506.797 572.627L503.659 567.196L500.528 572.629L497.396 578.062L503.667 578.057L509.937 578.053L506.797 572.627" fill="#9E9E9E"/>
<path d="M535.828 586.812L532.689 581.383L529.56 586.815L526.427 592.248L532.697 592.244L538.968 592.24L535.828 586.812" fill="#9E9E9E"/>
<path d="M717.177 456.957L714.039 451.526L710.909 456.96L707.776 462.393L714.047 462.388L720.317 462.384L717.177 456.957" fill="#9E9E9E"/>
<path d="M112.347 383.041L109.208 377.612L106.079 383.044L102.945 388.477L109.215 388.472L115.485 388.469L112.347 383.041Z" fill="#9E9E9E"/>
<path d="M308.94 645.556L305.801 640.126L302.672 645.558L299.539 650.992L305.808 650.986L312.079 650.982L308.94 645.556" fill="#9E9E9E"/>
<path d="M278.08 668.064L274.943 662.635L271.812 668.067L268.68 673.5L274.949 673.495L281.22 673.491L278.08 668.064Z" fill="#9E9E9E"/>
<path d="M577.188 345.584L574.049 340.154L570.919 345.586L567.787 351.021L574.057 351.016L580.328 351.012L577.188 345.584Z" fill="#9E9E9E"/>
<path d="M607.245 76.2011L605.245 72.7398L603.247 76.2051" stroke="#9E9E9E" stroke-width="1.33333" stroke-miterlimit="10"/>
<path d="M599.164 83.2907L597.128 86.8281L593.041 93.916" stroke="#9E9E9E" stroke-width="1.33333" stroke-miterlimit="10" stroke-dasharray="8.18 8.18"/>
<path d="M591 97.4574L589.003 100.921L593.003 100.919" stroke="#9E9E9E" stroke-width="1.33333" stroke-miterlimit="10"/>
<path d="M601.177 100.911L605.263 100.908L613.44 100.904" stroke="#9E9E9E" stroke-width="1.33333" stroke-miterlimit="10" stroke-dasharray="8.18 8.18"/>
<path d="M617.528 100.903L621.528 100.9L619.525 97.4362" stroke="#9E9E9E" stroke-width="1.33333" stroke-miterlimit="10"/>
<path d="M615.432 90.3584L613.385 86.821L609.292 79.741" stroke="#9E9E9E" stroke-width="1.33333" stroke-miterlimit="10" stroke-dasharray="8.18 8.18"/>
<path d="M732.292 742.973L730.289 739.512L728.295 742.978" stroke="#9E9E9E" stroke-width="1.33333" stroke-miterlimit="10"/>
<path d="M724.211 750.062L722.172 753.599L718.088 760.688" stroke="#9E9E9E" stroke-width="1.33333" stroke-miterlimit="10" stroke-dasharray="8.18 8.18"/>
<path d="M716.047 764.229L714.047 767.693L718.047 767.69" stroke="#9E9E9E" stroke-width="1.33333" stroke-miterlimit="10"/>
<path d="M726.224 767.684L730.309 767.68L738.487 767.676" stroke="#9E9E9E" stroke-width="1.33333" stroke-miterlimit="10" stroke-dasharray="8.18 8.18"/>
<path d="M742.573 767.675L746.573 767.672L744.571 764.208" stroke="#9E9E9E" stroke-width="1.33333" stroke-miterlimit="10"/>
<path d="M740.476 757.132L738.432 753.593L734.339 746.513" stroke="#9E9E9E" stroke-width="1.33333" stroke-miterlimit="10" stroke-dasharray="8.18 8.18"/>
<path d="M106.161 603.157L104.159 599.694L102.161 603.161" stroke="#9E9E9E" stroke-width="1.33333" stroke-miterlimit="10"/>
<path d="M98.0806 610.247L96.0416 613.784L91.9556 620.871" stroke="#9E9E9E" stroke-width="1.33333" stroke-miterlimit="10" stroke-dasharray="8.18 8.18"/>
<path d="M89.914 624.413L87.9165 627.877L91.9165 627.873" stroke="#9E9E9E" stroke-width="1.33333" stroke-miterlimit="10"/>
<path d="M100.091 627.867L104.179 627.863L112.355 627.859" stroke="#9E9E9E" stroke-width="1.33333" stroke-miterlimit="10" stroke-dasharray="8.18 8.18"/>
<path d="M116.443 627.858L120.443 627.856L118.44 624.392" stroke="#9E9E9E" stroke-width="1.33333" stroke-miterlimit="10"/>
<path d="M114.347 617.314L112.3 613.777L108.207 606.696" stroke="#9E9E9E" stroke-width="1.33333" stroke-miterlimit="10" stroke-dasharray="8.18 8.18"/>
<path d="M641.716 461.94L633.579 471.128L625.437 480.319L633.612 489.389L641.789 498.464" stroke="#9E9E9E" stroke-width="9.33333" stroke-miterlimit="10" stroke-linecap="round" stroke-linejoin="round"/>
<path d="M669.451 461.94L661.312 471.128L653.172 480.319L661.347 489.389L669.523 498.464" stroke="#9E9E9E" stroke-width="9.33333" stroke-miterlimit="10" stroke-linecap="round" stroke-linejoin="round"/>
<path d="M65.8984 374.279L57.7604 383.467L49.6199 392.657L57.7943 401.728L65.9699 410.803" stroke="#9E9E9E" stroke-width="9.33333" stroke-miterlimit="10" stroke-linecap="round" stroke-linejoin="round"/>
<path d="M39.2787 374.279L31.1407 383.467L23 392.657L31.1745 401.728L39.3505 410.803" stroke="#9E9E9E" stroke-width="9.33333" stroke-miterlimit="10" stroke-linecap="round" stroke-linejoin="round"/>
<path d="M526.419 102.645L518.281 111.833L510.14 121.025L518.315 130.095L526.492 139.169" stroke="#9E9E9E" stroke-width="9.33333" stroke-miterlimit="10" stroke-linecap="round" stroke-linejoin="round"/>
<path d="M553.904 102.645L545.765 111.833L537.625 121.025L545.8 130.095L553.973 139.169" stroke="#9E9E9E" stroke-width="9.33333" stroke-miterlimit="10" stroke-linecap="round" stroke-linejoin="round"/>
<path d="M430.797 231.559C430.797 224.415 436.583 218.625 443.727 218.625H567.823C574.967 218.625 580.755 224.415 580.755 231.559V239.567C580.755 246.709 574.967 252.501 567.823 252.501H443.727C436.583 252.501 430.797 246.709 430.797 239.567V231.559Z" stroke="#9E9E9E" stroke-width="1.33333" stroke-miterlimit="10"/>
<path d="M569.361 252.501C562.216 252.501 556.429 246.709 556.429 239.567V231.559C556.429 224.415 562.216 218.625 569.361 218.625" stroke="#9E9E9E" stroke-width="1.33333" stroke-miterlimit="10"/>
<path d="M155.608 747.725C155.608 740.581 161.395 734.792 168.537 734.792H292.634C299.776 734.792 305.567 740.581 305.567 747.725V755.733C305.567 762.876 299.776 768.668 292.634 768.668H168.537C161.395 768.668 155.608 762.876 155.608 755.733V747.725Z" stroke="#9E9E9E" stroke-width="1.33333" stroke-miterlimit="10"/>
<path d="M294.173 768.668C287.027 768.668 281.241 762.876 281.241 755.733V747.725C281.241 740.581 287.027 734.792 294.173 734.792" stroke="#9E9E9E" stroke-width="1.33333" stroke-miterlimit="10"/>
<path d="M726.807 599.694C726.807 614.733 714.617 626.922 699.58 626.922C684.541 626.922 672.352 614.733 672.352 599.694C672.352 584.657 684.541 572.468 699.58 572.468C714.617 572.468 726.807 584.657 726.807 599.694Z" stroke="#9E9E9E" stroke-width="9.33333" stroke-miterlimit="10" stroke-linecap="round" stroke-linejoin="round"/>
<path d="M114.76 86.8306C114.76 101.868 102.569 114.059 87.5323 114.059C72.4948 114.059 60.3032 101.868 60.3032 86.8306C60.3032 71.7933 72.4948 59.6026 87.5323 59.6026C102.569 59.6026 114.76 71.7933 114.76 86.8306Z" stroke="#9E9E9E" stroke-width="9.33333" stroke-miterlimit="10" stroke-linecap="round" stroke-linejoin="round"/>
<path d="M57.9911 278.569L57.9868 285.236L64.6535 285.24" stroke="#9E9E9E" stroke-width="1.33333" stroke-miterlimit="10"/>
<path d="M81.0938 285.249L105.753 285.265" stroke="#9E9E9E" stroke-width="1.33333" stroke-miterlimit="10" stroke-dasharray="16.44 16.44"/>
<path d="M113.973 285.27L120.64 285.274L120.644 278.608" stroke="#9E9E9E" stroke-width="1.33333" stroke-miterlimit="10"/>
<path d="M120.653 265.129L120.667 244.913" stroke="#9E9E9E" stroke-width="1.33333" stroke-miterlimit="10" stroke-dasharray="13.48 13.48"/>
<path d="M120.671 238.173L120.675 231.507L114.008 231.503" stroke="#9E9E9E" stroke-width="1.33333" stroke-miterlimit="10"/>
<path d="M97.5676 231.492L72.9077 231.476" stroke="#9E9E9E" stroke-width="1.33333" stroke-miterlimit="10" stroke-dasharray="16.44 16.44"/>
<path d="M64.6874 231.47L58.0207 231.468L58.0171 238.134" stroke="#9E9E9E" stroke-width="1.33333" stroke-miterlimit="10"/>
<path d="M58.0077 251.613L57.9946 271.829" stroke="#9E9E9E" stroke-width="1.33333" stroke-miterlimit="10" stroke-dasharray="13.48 13.48"/>
<path d="M668.24 211.237L668.235 217.904L674.901 217.908" stroke="#9E9E9E" stroke-width="1.33333" stroke-miterlimit="10"/>
<path d="M691.341 217.917L716.003 217.933" stroke="#9E9E9E" stroke-width="1.33333" stroke-miterlimit="10" stroke-dasharray="16.44 16.44"/>
<path d="M724.221 217.938L730.888 217.942L730.893 211.276" stroke="#9E9E9E" stroke-width="1.33333" stroke-miterlimit="10"/>
<path d="M730.901 197.798L730.913 177.58" stroke="#9E9E9E" stroke-width="1.33333" stroke-miterlimit="10" stroke-dasharray="13.48 13.48"/>
<path d="M730.919 170.841L730.921 164.175L724.255 164.171" stroke="#9E9E9E" stroke-width="1.33333" stroke-miterlimit="10"/>
<path d="M707.815 164.16L683.156 164.144" stroke="#9E9E9E" stroke-width="1.33333" stroke-miterlimit="10" stroke-dasharray="16.44 16.44"/>
<path d="M674.935 164.139L668.268 164.136L668.265 170.803" stroke="#9E9E9E" stroke-width="1.33333" stroke-miterlimit="10"/>
<path d="M668.255 184.28L668.243 204.499" stroke="#9E9E9E" stroke-width="1.33333" stroke-miterlimit="10" stroke-dasharray="13.48 13.48"/>
<path d="M188.588 257.949H104.18V173.54H188.588V257.949Z" stroke="#9E9E9E" stroke-width="1.33333" stroke-miterlimit="10"/>
<path d="M104.18 173.54L129.943 147.78H214.349V232.192L188.588 257.949" stroke="#9E9E9E" stroke-width="1.33333" stroke-miterlimit="10"/>
<path d="M214.349 147.78L188.588 173.54" stroke="#9E9E9E" stroke-width="1.33333" stroke-miterlimit="10"/>
<path d="M614.292 598.656H698.7V683.065H614.292V598.656Z" stroke="#9E9E9E" stroke-width="1.33333" stroke-miterlimit="10"/>
<path d="M698.7 683.065L672.937 708.825H588.531V624.415L614.292 598.656" stroke="#9E9E9E" stroke-width="1.33333" stroke-miterlimit="10"/>
<path d="M588.531 708.825L614.292 683.065" stroke="#9E9E9E" stroke-width="1.33333" stroke-miterlimit="10"/>
<path d="M310.672 190.345C301.459 190.345 303.047 174.005 291.291 174.005" stroke="#9E9E9E" stroke-width="9.33333" stroke-miterlimit="10" stroke-linecap="round" stroke-linejoin="round"/>
<path d="M349.433 190.345C340.221 190.345 341.808 174.007 330.053 174.008" stroke="#9E9E9E" stroke-width="9.33333" stroke-miterlimit="10" stroke-linecap="round" stroke-linejoin="round"/>
<path d="M310.672 190.345C319.885 190.345 318.297 174.008 330.053 174.008" stroke="#9E9E9E" stroke-width="9.33333" stroke-miterlimit="10" stroke-linecap="round" stroke-linejoin="round"/>
<path d="M388.197 190.347C378.981 190.345 380.571 174.007 368.815 174.007" stroke="#9E9E9E" stroke-width="9.33333" stroke-miterlimit="10" stroke-linecap="round" stroke-linejoin="round"/>
<path d="M349.433 190.345C358.647 190.345 357.06 174.005 368.815 174.007" stroke="#9E9E9E" stroke-width="9.33333" stroke-miterlimit="10" stroke-linecap="round" stroke-linejoin="round"/>
<path d="M388.198 190.347C397.411 190.345 395.823 174.005 407.579 174.007" stroke="#9E9E9E" stroke-width="9.33333" stroke-miterlimit="10" stroke-linecap="round" stroke-linejoin="round"/>
<path d="M349.435 168.022C340.221 168.022 341.809 151.682 330.053 151.682" stroke="#9E9E9E" stroke-width="9.33333" stroke-miterlimit="10" stroke-linecap="round" stroke-linejoin="round"/>
<path d="M388.197 168.022C378.984 168.022 380.573 151.684 368.817 151.684" stroke="#9E9E9E" stroke-width="9.33333" stroke-miterlimit="10" stroke-linecap="round" stroke-linejoin="round"/>
<path d="M349.435 168.022C358.648 168.022 357.061 151.684 368.817 151.684" stroke="#9E9E9E" stroke-width="9.33333" stroke-miterlimit="10" stroke-linecap="round" stroke-linejoin="round"/>
<path d="M426.961 168.022C417.745 168.021 419.336 151.684 407.58 151.684" stroke="#9E9E9E" stroke-width="9.33333" stroke-miterlimit="10" stroke-linecap="round" stroke-linejoin="round"/>
<path d="M388.198 168.022C397.411 168.021 395.823 151.682 407.58 151.684" stroke="#9E9E9E" stroke-width="9.33333" stroke-miterlimit="10" stroke-linecap="round" stroke-linejoin="round"/>
<path d="M426.961 168.022C436.175 168.022 434.585 151.682 446.341 151.684" stroke="#9E9E9E" stroke-width="9.33333" stroke-miterlimit="10" stroke-linecap="round" stroke-linejoin="round"/>
<path d="M386.067 758.842C376.853 758.842 378.441 742.502 366.685 742.502" stroke="#9E9E9E" stroke-width="9.33333" stroke-miterlimit="10" stroke-linecap="round" stroke-linejoin="round"/>
<path d="M424.828 758.842C415.617 758.842 417.203 742.504 405.448 742.505" stroke="#9E9E9E" stroke-width="9.33333" stroke-miterlimit="10" stroke-linecap="round" stroke-linejoin="round"/>
<path d="M386.067 758.842C395.28 758.842 393.692 742.505 405.448 742.505" stroke="#9E9E9E" stroke-width="9.33333" stroke-miterlimit="10" stroke-linecap="round" stroke-linejoin="round"/>
<path d="M463.593 758.844C454.377 758.842 455.967 742.504 444.211 742.504" stroke="#9E9E9E" stroke-width="9.33333" stroke-miterlimit="10" stroke-linecap="round" stroke-linejoin="round"/>
<path d="M424.828 758.842C434.041 758.842 432.456 742.502 444.211 742.504" stroke="#9E9E9E" stroke-width="9.33333" stroke-miterlimit="10" stroke-linecap="round" stroke-linejoin="round"/>
<path d="M463.594 758.844C472.804 758.842 471.216 742.502 482.974 742.504" stroke="#9E9E9E" stroke-width="9.33333" stroke-miterlimit="10" stroke-linecap="round" stroke-linejoin="round"/>
<path d="M424.831 736.52C415.617 736.52 417.205 720.18 405.448 720.18" stroke="#9E9E9E" stroke-width="9.33333" stroke-miterlimit="10" stroke-linecap="round" stroke-linejoin="round"/>
<path d="M463.593 736.52C454.38 736.52 455.968 720.181 444.213 720.181" stroke="#9E9E9E" stroke-width="9.33333" stroke-miterlimit="10" stroke-linecap="round" stroke-linejoin="round"/>
<path d="M424.831 736.52C434.044 736.52 432.456 720.181 444.213 720.181" stroke="#9E9E9E" stroke-width="9.33333" stroke-miterlimit="10" stroke-linecap="round" stroke-linejoin="round"/>
<path d="M502.356 736.52C493.14 736.518 494.729 720.181 482.973 720.181" stroke="#9E9E9E" stroke-width="9.33333" stroke-miterlimit="10" stroke-linecap="round" stroke-linejoin="round"/>
<path d="M463.594 736.52C472.804 736.518 471.219 720.18 482.974 720.181" stroke="#9E9E9E" stroke-width="9.33333" stroke-miterlimit="10" stroke-linecap="round" stroke-linejoin="round"/>
<path d="M502.356 736.52C511.571 736.52 509.979 720.18 521.737 720.181" stroke="#9E9E9E" stroke-width="9.33333" stroke-miterlimit="10" stroke-linecap="round" stroke-linejoin="round"/>
<path d="M666.888 300.102C673.216 300.102 672.125 311.324 680.197 311.324" stroke="#9E9E9E" stroke-width="1.33333" stroke-miterlimit="10"/>
<path d="M640.268 300.103C646.596 300.103 645.505 311.323 653.579 311.323" stroke="#9E9E9E" stroke-width="1.33333" stroke-miterlimit="10"/>
<path d="M666.888 300.103C660.56 300.103 661.651 311.323 653.579 311.323" stroke="#9E9E9E" stroke-width="1.33333" stroke-miterlimit="10"/>
<path d="M613.648 300.101C619.976 300.103 618.885 311.323 626.959 311.323" stroke="#9E9E9E" stroke-width="1.33333" stroke-miterlimit="10"/>
<path d="M640.268 300.103C633.94 300.103 635.031 311.324 626.959 311.323" stroke="#9E9E9E" stroke-width="1.33333" stroke-miterlimit="10"/>
<path d="M613.648 300.101C607.32 300.103 608.412 311.324 600.339 311.323" stroke="#9E9E9E" stroke-width="1.33333" stroke-miterlimit="10"/>
<path d="M91.0693 530.863C97.3975 530.863 96.3063 542.084 104.379 542.084" stroke="#9E9E9E" stroke-width="1.33333" stroke-miterlimit="10"/>
<path d="M64.4487 530.863C70.7769 530.863 69.6863 542.083 77.7586 542.083" stroke="#9E9E9E" stroke-width="1.33333" stroke-miterlimit="10"/>
<path d="M91.0693 530.863C84.7412 530.863 85.8317 542.083 77.7588 542.083" stroke="#9E9E9E" stroke-width="1.33333" stroke-miterlimit="10"/>
<path d="M37.8296 530.861C44.1577 530.862 43.066 542.083 51.1395 542.083" stroke="#9E9E9E" stroke-width="1.33333" stroke-miterlimit="10"/>
<path d="M64.4487 530.863C58.1206 530.863 59.2123 542.084 51.1394 542.083" stroke="#9E9E9E" stroke-width="1.33333" stroke-miterlimit="10"/>
<path d="M37.8294 530.861C31.5013 530.862 32.5918 542.084 24.5195 542.083" stroke="#9E9E9E" stroke-width="1.33333" stroke-miterlimit="10"/>
<path d="M284.968 561.545L286.747 567.969L293.172 566.192" stroke="#9E9E9E" stroke-width="1.33333" stroke-miterlimit="10"/>
<path d="M568.432 489.957L574.856 488.178L573.079 481.753" stroke="#9E9E9E" stroke-width="1.33333" stroke-miterlimit="10"/>
<path d="M508.159 247.353L506.38 240.928L499.956 242.706" stroke="#9E9E9E" stroke-width="1.33333" stroke-miterlimit="10"/>
<path d="M224.692 318.941L218.268 320.72L220.047 327.144" stroke="#9E9E9E" stroke-width="1.33333" stroke-miterlimit="10"/>
</svg>
