<svg width="446" height="448" viewBox="0 0 446 448" fill="none" xmlns="http://www.w3.org/2000/svg">
<path fill-rule="evenodd" clip-rule="evenodd" d="M240 447.5C240 447.225 238.875 447 237.5 447C236.125 447 235 446.775 235 446.5C235 446.225 234.325 446 233.5 446C232.675 446 232 445.775 232 445.5C232 445.225 231.325 445 230.5 445C229.675 445 229 444.775 229 444.5C229 444.225 228.55 444 228 444C227.45 444 227 443.775 227 443.5C227 443.225 226.6 443 226.111 443C225.621 443 224.896 442.55 224.5 442C224.104 441.45 223.428 441 223 441C222.572 441 221.896 440.55 221.5 440C221.104 439.45 220.488 439 220.132 439C219.287 439 212 431.713 212 430.868C212 430.512 211.55 429.896 211 429.5C210.45 429.104 210 428.428 210 428C210 427.572 209.55 426.896 209 426.5C208.45 426.104 208 425.379 208 424.889C208 424.4 207.775 424 207.5 424C207.225 424 207 423.55 207 423C207 422.45 206.775 422 206.5 422C206.225 422 206 421.55 206 421C206 420.45 205.775 420 205.5 420C205.225 420 205 419.6 205 419.111C205 418.621 204.55 417.896 204 417.5C203.45 417.104 203 416.379 203 415.89C203 415.401 202.775 415 202.5 415C202.225 415 202 414.55 202 414C202 413.45 201.775 413 201.5 413C201.225 413 201 412.599 201 412.11C201 411.621 200.55 410.896 200 410.5C199.45 410.104 199 409.379 199 408.89C199 408.401 198.775 408 198.5 408C198.225 408 198 407.55 198 407C198 406.45 197.775 406 197.5 406C197.225 406 197 405.599 197 405.11C197 404.621 196.55 403.896 196 403.5C195.45 403.104 195 402.379 195 401.89C195 401.401 194.775 401 194.5 401C194.225 401 194 400.599 194 400.11C194 399.621 193.55 398.896 193 398.5C192.45 398.104 192 397.379 192 396.89C192 396.401 191.775 396 191.5 396C191.225 396 191 395.55 191 395C191 394.45 190.775 394 190.5 394C190.225 394 190 393.599 190 393.11C190 392.621 189.55 391.896 189 391.5C188.45 391.104 188 390.428 188 390C188 389.572 187.55 388.896 187 388.5C186.45 388.104 186 387.379 186 386.89C186 386.401 185.775 386 185.5 386C185.225 386 185 385.599 185 385.11C185 384.621 184.55 383.896 184 383.5C183.45 383.104 183 382.379 183 381.89C183 381.401 182.775 381 182.5 381C182.225 381 182 380.599 182 380.11C182 379.621 181.55 378.896 181 378.5C180.45 378.104 180 377.379 180 376.89C180 376.401 179.775 376 179.5 376C179.225 376 179 375.599 179 375.11C179 374.621 178.55 373.896 178 373.5C177.45 373.104 177 372.428 177 372C177 371.572 176.55 370.896 176 370.5C175.45 370.104 175 369.428 175 369C175 368.572 174.55 367.896 174 367.5C173.45 367.104 173 366.428 173 366C173 365.572 172.55 364.896 172 364.5C171.45 364.104 171 363.379 171 362.89C171 362.401 170.775 362 170.5 362C170.225 362 170 361.599 170 361.11C170 360.621 169.55 359.896 169 359.5C168.45 359.104 168 358.428 168 358C168 357.572 167.55 356.896 167 356.5C166.45 356.104 166 355.428 166 355C166 354.572 165.55 353.896 165 353.5C164.45 353.104 164 352.428 164 352C164 351.572 163.55 350.896 163 350.5C162.45 350.104 162 349.428 162 349C162 348.572 161.55 347.896 161 347.5C160.45 347.104 160 346.428 160 346C160 345.572 159.55 344.896 159 344.5C158.45 344.104 158 343.428 158 343C158 342.572 157.55 341.896 157 341.5C156.45 341.104 156 340.428 156 340C156 339.572 155.55 338.896 155 338.5C154.45 338.104 154 337.469 154 337.09C154 336.711 153.325 335.771 152.5 335C151.675 334.229 151 333.289 151 332.91C151 332.531 150.55 331.896 150 331.5C149.45 331.104 149 330.428 149 330C149 329.572 148.55 328.896 148 328.5C147.45 328.104 147 327.469 147 327.09C147 326.711 146.325 325.771 145.5 325C144.675 324.229 144 323.289 144 322.91C144 322.531 143.55 321.896 143 321.5C142.45 321.104 142 320.469 142 320.09C142 319.711 141.325 318.771 140.5 318C139.675 317.229 139 316.289 139 315.91C139 315.531 138.55 314.896 138 314.5C137.45 314.104 137 313.469 137 313.09C137 312.711 136.325 311.771 135.5 311C134.675 310.229 134 309.329 134 309C134 308.671 133.325 307.771 132.5 307C131.675 306.229 131 305.329 131 305C131 304.671 130.325 303.771 129.5 303C128.675 302.229 128 301.329 128 301C128 300.671 127.325 299.771 126.5 299C125.675 298.229 125 297.329 125 297C125 296.671 124.325 295.771 123.5 295C122.675 294.229 122 293.342 122 293.027C122 292.185 119.67 290 118.773 290C118.348 290 118 290.345 118 290.766C118 291.702 114.788 295 113.877 295C113.516 295 112.896 295.45 112.5 296C112.076 296.587 111.205 297 110.389 297C109.625 297 109 297.225 109 297.5C109 297.83 92.3335 298 60 298C27.6665 298 11 297.83 11 297.5C11 297.225 10.55 297 10 297C9.45 297 9 296.775 9 296.5C9 296.225 8.6575 296 8.239 296C7.8205 296 6.2455 294.768 4.739 293.261C3.2325 291.755 2 290.18 2 289.761C2 289.343 1.775 289 1.5 289C1.225 289 1 288.325 1 287.5C1 286.675 0.775 286 0.5 286C0.168 286 0 242.5 0 156.5C0 70.5 0.168 27 0.5 27C0.775 27 1 26.325 1 25.5C1 24.675 1.225 24 1.5 24C1.775 24 2 23.6575 2 23.239C2 22.249 7.249 17 8.239 17C8.6575 17 9 16.775 9 16.5C9 16.225 9.45 16 10 16C10.55 16 11 15.775 11 15.5C11 15.17 27.6665 15 60 15C92.3335 15 109 15.17 109 15.5C109 15.775 109.625 16 110.389 16C111.205 16 112.076 16.413 112.5 17C112.896 17.55 113.519 18 113.883 18C114.741 18 117 20.2585 117 21.117C117 21.481 117.45 22.1035 118 22.5C118.55 22.8965 119 23.621 119 24.1105C119 24.5995 119.225 25 119.5 25C119.775 25 120 25.675 120 26.5C120 27.325 120.125 28 120.277 28C120.43 28 121.88 26.65 123.5 25C125.12 23.35 126.7 22 127.012 22C127.324 22 128.443 21.1 129.5 20C130.557 18.9 131.686 18 132.01 18C132.334 18 133.229 17.325 134 16.5C134.771 15.675 135.711 15 136.09 15C136.469 15 137.104 14.55 137.5 14C137.896 13.45 138.621 13 139.111 13C139.6 13 140 12.775 140 12.5C140 12.225 140.45 12 141 12C141.55 12 142 11.775 142 11.5C142 11.225 142.45 11 143 11C143.55 11 144 10.775 144 10.5C144 10.225 144.45 10 145 10C145.55 10 146 9.775 146 9.5C146 9.225 146.45 9 147 9C147.55 9 148 8.775 148 8.5C148 8.225 148.45 8 149 8C149.55 8 150 7.775 150 7.5C150 7.225 150.45 7 151 7C151.55 7 152 6.775 152 6.5C152 6.225 152.675 6 153.5 6C154.325 6 155 5.775 155 5.5C155 5.225 155.675 5 156.5 5C157.325 5 158 4.775 158 4.5C158 4.225 158.675 4 159.5 4C160.325 4 161 3.775 161 3.5C161 3.225 161.9 3 163 3C164.1 3 165 2.775 165 2.5C165 2.225 165.9 2 167 2C168.1 2 169 1.775 169 1.5C169 1.2145 170.5 1 172.5 1C174.5 1 176 0.7855 176 0.5C176 0.17 194 0 229 0C264 0 282 0.17 282 0.5C282 0.7855 283.5 1 285.5 1C287.5 1 289 1.2145 289 1.5C289 1.775 290.125 2 291.5 2C292.875 2 294 2.225 294 2.5C294 2.775 294.9 3 296 3C297.1 3 298 3.225 298 3.5C298 3.775 298.675 4 299.5 4C300.325 4 301 4.225 301 4.5C301 4.775 301.675 5 302.5 5C303.325 5 304 5.225 304 5.5C304 5.775 304.45 6 305 6C305.55 6 306 6.225 306 6.5C306 6.775 306.675 7 307.5 7C308.325 7 309 7.225 309 7.5C309 7.775 309.45 8 310 8C310.55 8 311 8.225 311 8.5C311 8.775 311.45 9 312 9C312.55 9 313 9.225 313 9.5C313 9.775 313.45 10 314 10C314.55 10 315 10.225 315 10.5C315 10.775 315.4 11 315.889 11C316.379 11 317.104 11.45 317.5 12C317.896 12.55 318.572 13 319 13C319.428 13 320.104 13.45 320.5 14C320.896 14.55 321.572 15 322 15C322.428 15 323.104 15.45 323.5 16C323.896 16.55 324.531 17 324.91 17C325.289 17 326.229 17.675 327 18.5C327.771 19.325 328.651 20 328.956 20C329.674 20 341 31.3165 341 32.034C341 32.3335 341.9 33.443 343 34.5C344.1 35.557 345 36.727 345 37.1005C345 37.474 345.45 38.1035 346 38.5C346.55 38.8965 347 39.5715 347 40C347 40.4285 347.45 41.1035 348 41.5C348.55 41.8965 349 42.5715 349 43C349 43.4285 349.45 44.1035 350 44.5C350.55 44.8965 351 45.5715 351 46C351 46.4285 351.45 47.1035 352 47.5C352.55 47.8965 353 48.5715 353 49C353 49.4285 353.45 50.1035 354 50.5C354.55 50.8965 355 51.5715 355 52C355 52.4285 355.45 53.1035 356 53.5C356.55 53.8965 357 54.5715 357 55C357 55.4285 357.45 56.1035 358 56.5C358.55 56.8965 359 57.5715 359 58C359 58.4285 359.45 59.1035 360 59.5C360.55 59.8965 361 60.5715 361 61C361 61.4285 361.45 62.1035 362 62.5C362.55 62.8965 363 63.5715 363 64C363 64.4285 363.45 65.1035 364 65.5C364.55 65.8965 365 66.5715 365 67C365 67.4285 365.45 68.1035 366 68.5C366.55 68.8965 367 69.5715 367 70C367 70.4285 367.45 71.1035 368 71.5C368.55 71.8965 369 72.5715 369 73C369 73.4285 369.45 74.1035 370 74.5C370.55 74.8965 371 75.5715 371 76C371 76.4285 371.45 77.1035 372 77.5C372.55 77.8965 373 78.5715 373 79C373 79.4285 373.45 80.1035 374 80.5C374.55 80.8965 375 81.5715 375 82C375 82.4285 375.45 83.1035 376 83.5C376.55 83.8965 377 84.5715 377 85C377 85.4285 377.45 86.1035 378 86.5C378.55 86.8965 379 87.5715 379 88C379 88.4285 379.45 89.1035 380 89.5C380.55 89.8965 381 90.5715 381 91C381 91.4285 381.45 92.1035 382 92.5C382.55 92.8965 383 93.5715 383 94C383 94.4285 383.45 95.1035 384 95.5C384.55 95.8965 385 96.5715 385 97C385 97.4285 385.45 98.1035 386 98.5C386.55 98.8965 387 99.5715 387 100C387 100.428 387.45 101.104 388 101.5C388.55 101.896 389 102.572 389 103C389 103.428 389.45 104.104 390 104.5C390.55 104.896 391 105.572 391 106C391 106.428 391.45 107.104 392 107.5C392.55 107.896 393 108.572 393 109C393 109.428 393.45 110.104 394 110.5C394.55 110.896 395 111.572 395 112C395 112.428 395.45 113.104 396 113.5C396.55 113.896 397 114.572 397 115C397 115.428 397.45 116.104 398 116.5C398.55 116.896 399 117.572 399 118C399 118.428 399.45 119.104 400 119.5C400.55 119.896 401 120.572 401 121C401 121.428 401.45 122.104 402 122.5C402.55 122.896 403 123.572 403 124C403 124.428 403.45 125.104 404 125.5C404.55 125.896 405 126.572 405 127C405 127.428 405.45 128.104 406 128.5C406.55 128.896 407 129.572 407 130C407 130.428 407.45 131.104 408 131.5C408.55 131.896 409 132.572 409 133C409 133.428 409.45 134.104 410 134.5C410.55 134.896 411 135.572 411 136C411 136.428 411.45 137.104 412 137.5C412.55 137.896 413 138.572 413 139C413 139.428 413.45 140.104 414 140.5C414.55 140.896 415 141.572 415 142C415 142.428 415.45 143.104 416 143.5C416.55 143.896 417 144.572 417 145C417 145.428 417.45 146.104 418 146.5C418.55 146.896 419 147.572 419 148C419 148.428 419.45 149.104 420 149.5C420.55 149.896 421 150.572 421 151C421 151.428 421.45 152.104 422 152.5C422.55 152.896 423 153.572 423 154C423 154.428 423.45 155.104 424 155.5C424.55 155.896 425 156.572 425 157C425 157.428 425.45 158.104 426 158.5C426.55 158.896 427 159.572 427 160C427 160.428 427.45 161.104 428 161.5C428.55 161.896 429 162.572 429 163C429 163.428 429.45 164.104 430 164.5C430.55 164.896 431 165.572 431 166C431 166.428 431.45 167.104 432 167.5C432.55 167.896 433 168.572 433 169C433 169.428 433.45 170.104 434 170.5C434.55 170.896 435 171.621 435 172.111C435 172.6 435.225 173 435.5 173C435.775 173 436 173.4 436 173.889C436 174.379 436.45 175.104 437 175.5C437.55 175.896 438 176.621 438 177.111C438 177.6 438.225 178 438.5 178C438.775 178 439 178.675 439 179.5C439 180.325 439.225 181 439.5 181C439.775 181 440 181.45 440 182C440 182.55 440.225 183 440.5 183C440.775 183 441 183.45 441 184C441 184.55 441.225 185 441.5 185C441.775 185 442 185.675 442 186.5C442 187.325 442.225 188 442.5 188C442.775 188 443 188.9 443 190C443 191.1 443.225 192 443.5 192C443.775 192 444 192.9 444 194C444 195.1 444.225 196 444.5 196C444.778 196 445 197.334 445 199C445 200.666 445.222 202 445.5 202C445.813 202 446 205.167 446 210.5C446 215.833 445.813 219 445.5 219C445.222 219 445 220.334 445 222C445 223.666 444.778 225 444.5 225C444.225 225 444 226.125 444 227.5C444 228.875 443.775 230 443.5 230C443.225 230 443 230.675 443 231.5C443 232.325 442.775 233 442.5 233C442.225 233 442 233.675 442 234.5C442 235.325 441.775 236 441.5 236C441.225 236 441 236.45 441 237C441 237.55 440.775 238 440.5 238C440.225 238 440 238.675 440 239.5C440 240.325 439.775 241 439.5 241C439.225 241 439 241.45 439 242C439 242.55 438.775 243 438.5 243C438.225 243 438 243.45 438 244C438 244.55 437.775 245 437.5 245C437.225 245 437 245.4 437 245.889C437 246.379 436.55 247.104 436 247.5C435.45 247.896 435 248.572 435 249C435 249.428 434.55 250.104 434 250.5C433.45 250.896 433 251.572 433 252C433 252.428 432.55 253.104 432 253.5C431.45 253.896 431 254.511 431 254.865C431 255.65 418.735 268 417.956 268C417.651 268 416.771 268.675 416 269.5C415.229 270.325 414.289 271 413.91 271C413.531 271 412.896 271.45 412.5 272C412.104 272.55 411.379 273 410.889 273C410.4 273 410 273.225 410 273.5C410 273.775 409.55 274 409 274C408.45 274 408 274.225 408 274.5C408 274.775 407.55 275 407 275C406.45 275 406 275.225 406 275.5C406 275.775 405.55 276 405 276C404.45 276 404 276.225 404 276.5C404 276.775 403.55 277 403 277C402.45 277 402 277.225 402 277.5C402 277.775 401.55 278 401 278C400.45 278 400 278.225 400 278.5C400 278.775 399.325 279 398.5 279C397.675 279 397 279.225 397 279.5C397 279.775 396.325 280 395.5 280C394.675 280 394 280.225 394 280.5C394 280.775 393.1 281 392 281C390.9 281 390 281.225 390 281.5C390 281.775 388.875 282 387.5 282C386.125 282 385 282.225 385 282.5C385 282.83 368.5 283 336.5 283H288V286C288 287.666 288.222 289 288.5 289C288.775 289 289 289.9 289 291C289 292.1 289.225 293 289.5 293C289.775 293 290 294.125 290 295.5C290 296.875 290.225 298 290.5 298C290.775 298 291 298.9 291 300C291 301.1 291.225 302 291.5 302C291.775 302 292 303.125 292 304.5C292 305.875 292.225 307 292.5 307C292.775 307 293 307.9 293 309C293 310.1 293.225 311 293.5 311C293.775 311 294 312.125 294 313.5C294 314.875 294.225 316 294.5 316C294.775 316 295 316.9 295 318C295 319.1 295.225 320 295.5 320C295.775 320 296 321.125 296 322.5C296 323.875 296.225 325 296.5 325C296.775 325 297 325.9 297 327C297 328.1 297.225 329 297.5 329C297.775 329 298 330.125 298 331.5C298 332.875 298.225 334 298.5 334C298.775 334 299 334.9 299 336C299 337.1 299.225 338 299.5 338C299.775 338 300 339.125 300 340.5C300 341.875 300.225 343 300.5 343C300.775 343 301 343.9 301 345C301 346.1 301.225 347 301.5 347C301.775 347 302 348.125 302 349.5C302 350.875 302.225 352 302.5 352C302.775 352 303 352.9 303 354C303 355.1 303.225 356 303.5 356C303.775 356 304 357.125 304 358.5C304 359.875 304.225 361 304.5 361C304.775 361 305 361.9 305 363C305 364.1 305.225 365 305.5 365C305.775 365 306 366.125 306 367.5C306 368.875 306.225 370 306.5 370C306.775 370 307 371.125 307 372.5C307 373.875 307.225 375 307.5 375C307.813 375 308 378.167 308 383.5C308 388.833 307.813 392 307.5 392C307.225 392 307 393.125 307 394.5C307 395.875 306.775 397 306.5 397C306.225 397 306 397.675 306 398.5C306 399.325 305.775 400 305.5 400C305.225 400 305 400.675 305 401.5C305 402.325 304.775 403 304.5 403C304.225 403 304 403.675 304 404.5C304 405.325 303.775 406 303.5 406C303.225 406 303 406.45 303 407C303 407.55 302.775 408 302.5 408C302.225 408 302 408.45 302 409C302 409.55 301.775 410 301.5 410C301.225 410 301 410.45 301 411C301 411.55 300.775 412 300.5 412C300.225 412 300 412.401 300 412.89C300 413.379 299.55 414.104 299 414.5C298.45 414.896 298 415.531 298 415.91C298 416.289 297.325 417.229 296.5 418C295.675 418.771 295 419.652 295 419.958C295 420.686 287.686 428 286.958 428C286.652 428 285.771 428.675 285 429.5C284.229 430.325 283.329 431 283 431C282.671 431 281.771 431.675 281 432.5C280.229 433.325 279.329 434 279 434C278.671 434 277.771 434.675 277 435.5C276.229 436.325 275.329 437 275 437C274.671 437 273.771 437.675 273 438.5C272.229 439.325 271.289 440 270.91 440C270.531 440 269.896 440.45 269.5 441C269.104 441.55 268.379 442 267.889 442C267.4 442 267 442.225 267 442.5C267 442.775 266.55 443 266 443C265.45 443 265 443.225 265 443.5C265 443.775 264.55 444 264 444C263.45 444 263 444.225 263 444.5C263 444.775 262.55 445 262 445C261.45 445 261 445.225 261 445.5C261 445.775 260.1 446 259 446C257.9 446 257 446.225 257 446.5C257 446.775 255.875 447 254.5 447C253.125 447 252 447.225 252 447.5C252 447.806 249.667 448 246 448C242.333 448 240 447.806 240 447.5ZM249 415.5C249 415.225 249.45 415 250 415C250.55 415 251 414.775 251 414.5C251 414.225 251.4 414 251.889 414C252.379 414 253.104 413.55 253.5 413C253.896 412.45 254.531 412 254.91 412C255.289 412 256.229 411.325 257 410.5C257.771 409.675 258.671 409 259 409C259.329 409 260.229 408.325 261 407.5C261.771 406.675 262.666 406 262.99 406C263.313 406 264.443 405.1 265.5 404C266.557 402.9 267.776 402 268.211 402C268.645 402 269 401.641 269 401.201C269 400.761 269.675 399.771 270.5 399C271.325 398.229 272 397.289 272 396.91C272 396.531 272.45 395.896 273 395.5C273.587 395.076 274 394.206 274 393.39C274 392.626 274.225 392 274.5 392C274.775 392 275 391.325 275 390.5C275 389.675 275.225 389 275.5 389C275.803 389 276 386.833 276 383.5C276 380.167 275.803 378 275.5 378C275.225 378 275 376.875 275 375.5C275 374.125 274.775 373 274.5 373C274.225 373 274 372.1 274 371C274 369.9 273.775 369 273.5 369C273.225 369 273 367.875 273 366.5C273 365.125 272.775 364 272.5 364C272.225 364 272 363.1 272 362C272 360.9 271.775 360 271.5 360C271.225 360 271 358.875 271 357.5C271 356.125 270.775 355 270.5 355C270.225 355 270 354.1 270 353C270 351.9 269.775 351 269.5 351C269.225 351 269 349.875 269 348.5C269 347.125 268.775 346 268.5 346C268.225 346 268 345.1 268 344C268 342.9 267.775 342 267.5 342C267.225 342 267 340.875 267 339.5C267 338.125 266.775 337 266.5 337C266.225 337 266 336.1 266 335C266 333.9 265.775 333 265.5 333C265.225 333 265 331.875 265 330.5C265 329.125 264.775 328 264.5 328C264.225 328 264 327.1 264 326C264 324.9 263.775 324 263.5 324C263.225 324 263 322.875 263 321.5C263 320.125 262.775 319 262.5 319C262.225 319 262 318.1 262 317C262 315.9 261.775 315 261.5 315C261.225 315 261 313.875 261 312.5C261 311.125 260.775 310 260.5 310C260.225 310 260 309.1 260 308C260 306.9 259.775 306 259.5 306C259.225 306 259 304.875 259 303.5C259 302.125 258.775 301 258.5 301C258.225 301 258 300.1 258 299C258 297.9 257.775 297 257.5 297C257.225 297 257 295.875 257 294.5C257 293.125 256.775 292 256.5 292C256.225 292 256 291.1 256 290C256 288.9 255.775 288 255.5 288C255.225 288 255 286.875 255 285.5C255 284.125 254.775 283 254.5 283C254.225 283 254 282.1 254 281C254 279.9 253.775 279 253.5 279C253.225 279 253 277.875 253 276.5C253 275.125 252.775 274 252.5 274C252.225 274 252 272.875 252 271.5C252 270.125 251.775 269 251.5 269C251.225 269 251 268.325 251 267.5C251 266.675 251.225 266 251.5 266C251.775 266 252 265.1 252 264C252 262.9 252.225 262 252.5 262C252.775 262 253 261.55 253 261C253 260.45 253.225 260 253.5 260C253.775 260 254 259.656 254 259.237C254 258.244 258.244 254 259.237 254C259.656 254 260 253.775 260 253.5C260 253.225 260.45 253 261 253C261.55 253 262 252.775 262 252.5C262 252.225 262.9 252 264 252C265.1 252 266 251.775 266 251.5C266 251.169 285.667 251 324 251C362.333 251 382 250.831 382 250.5C382 250.225 382.9 250 384 250C385.1 250 386 249.775 386 249.5C386 249.225 386.45 249 387 249C387.55 249 388 248.775 388 248.5C388 248.225 388.675 248 389.5 248C390.325 248 391 247.775 391 247.5C391 247.225 391.4 247 391.889 247C392.379 247 393.104 246.55 393.5 246C393.896 245.45 394.572 245 395 245C395.428 245 396.104 244.55 396.5 244C396.896 243.45 397.512 243 397.868 243C398.224 243 400.2 241.316 402.258 239.258C404.316 237.2 406 235.224 406 234.868C406 234.512 406.45 233.896 407 233.5C407.55 233.104 408 232.379 408 231.889C408 231.4 408.225 231 408.5 231C408.775 231 409 230.55 409 230C409 229.45 409.225 229 409.5 229C409.775 229 410 228.55 410 228C410 227.45 410.225 227 410.5 227C410.775 227 411 226.55 411 226C411 225.45 411.225 225 411.5 225C411.775 225 412 224.325 412 223.5C412 222.675 412.225 222 412.5 222C412.775 222 413 220.875 413 219.5C413 218.125 413.225 217 413.5 217C413.808 217 414 214.5 414 210.5C414 206.5 413.808 204 413.5 204C413.225 204 413 202.875 413 201.5C413 200.125 412.775 199 412.5 199C412.225 199 412 198.325 412 197.5C412 196.675 411.775 196 411.5 196C411.225 196 411 195.55 411 195C411 194.45 410.775 194 410.5 194C410.225 194 410 193.55 410 193C410 192.45 409.775 192 409.5 192C409.225 192 409 191.55 409 191C409 190.45 408.775 190 408.5 190C408.225 190 408 189.6 408 189.111C408 188.621 407.55 187.896 407 187.5C406.45 187.104 406 186.428 406 186C406 185.572 405.55 184.896 405 184.5C404.45 184.104 404 183.428 404 183C404 182.572 403.55 181.896 403 181.5C402.45 181.104 402 180.428 402 180C402 179.572 401.55 178.896 401 178.5C400.45 178.104 400 177.428 400 177C400 176.572 399.55 175.896 399 175.5C398.45 175.104 398 174.428 398 174C398 173.572 397.55 172.896 397 172.5C396.45 172.104 396 171.428 396 171C396 170.572 395.55 169.896 395 169.5C394.45 169.104 394 168.428 394 168C394 167.572 393.55 166.896 393 166.5C392.45 166.104 392 165.428 392 165C392 164.572 391.55 163.896 391 163.5C390.45 163.104 390 162.428 390 162C390 161.572 389.55 160.896 389 160.5C388.45 160.104 388 159.428 388 159C388 158.572 387.55 157.896 387 157.5C386.45 157.104 386 156.428 386 156C386 155.572 385.55 154.896 385 154.5C384.45 154.104 384 153.428 384 153C384 152.572 383.55 151.896 383 151.5C382.45 151.104 382 150.428 382 150C382 149.572 381.55 148.896 381 148.5C380.45 148.104 380 147.428 380 147C380 146.572 379.55 145.896 379 145.5C378.45 145.104 378 144.428 378 144C378 143.572 377.55 142.896 377 142.5C376.45 142.104 376 141.428 376 141C376 140.572 375.55 139.896 375 139.5C374.45 139.104 374 138.428 374 138C374 137.572 373.55 136.896 373 136.5C372.45 136.104 372 135.428 372 135C372 134.572 371.55 133.896 371 133.5C370.45 133.104 370 132.428 370 132C370 131.572 369.55 130.896 369 130.5C368.45 130.104 368 129.428 368 129C368 128.572 367.55 127.896 367 127.5C366.45 127.104 366 126.428 366 126C366 125.572 365.55 124.896 365 124.5C364.45 124.104 364 123.428 364 123C364 122.572 363.55 121.896 363 121.5C362.45 121.104 362 120.428 362 120C362 119.572 361.55 118.896 361 118.5C360.45 118.104 360 117.428 360 117C360 116.572 359.55 115.896 359 115.5C358.45 115.104 358 114.428 358 114C358 113.572 357.55 112.896 357 112.5C356.45 112.104 356 111.428 356 111C356 110.572 355.55 109.896 355 109.5C354.45 109.104 354 108.428 354 108C354 107.572 353.55 106.896 353 106.5C352.45 106.104 352 105.428 352 105C352 104.572 351.55 103.896 351 103.5C350.45 103.104 350 102.428 350 102C350 101.572 349.55 100.896 349 100.5C348.45 100.104 348 99.4285 348 99C348 98.5715 347.55 97.8965 347 97.5C346.45 97.1035 346 96.4285 346 96C346 95.5715 345.55 94.8965 345 94.5C344.45 94.1035 344 93.4285 344 93C344 92.5715 343.55 91.8965 343 91.5C342.45 91.1035 342 90.4285 342 90C342 89.5715 341.55 88.8965 341 88.5C340.45 88.1035 340 87.4285 340 87C340 86.5715 339.55 85.8965 339 85.5C338.45 85.1035 338 84.4285 338 84C338 83.5715 337.55 82.8965 337 82.5C336.45 82.1035 336 81.4285 336 81C336 80.5715 335.55 79.8965 335 79.5C334.45 79.1035 334 78.4285 334 78C334 77.5715 333.55 76.8965 333 76.5C332.45 76.1035 332 75.4285 332 75C332 74.5715 331.55 73.8965 331 73.5C330.45 73.1035 330 72.4285 330 72C330 71.5715 329.55 70.8965 329 70.5C328.45 70.1035 328 69.4285 328 69C328 68.5715 327.55 67.8965 327 67.5C326.45 67.1035 326 66.469 326 66.09C326 65.7115 325.325 64.7705 324.5 64C323.675 63.2295 323 62.2885 323 61.91C323 61.531 322.55 60.8965 322 60.5C321.45 60.1035 321 59.4285 321 59C321 58.5715 320.55 57.8965 320 57.5C319.45 57.1035 319 56.469 319 56.09C319 55.7115 318.325 54.7705 317.5 54C316.675 53.2295 316 52.3475 316 52.04C316 51.312 309.688 45 308.96 45C308.652 45 307.771 44.325 307 43.5C306.229 42.675 305.289 42 304.91 42C304.531 42 303.896 41.55 303.5 41C303.104 40.45 302.379 40 301.889 40C301.4 40 301 39.775 301 39.5C301 39.225 300.55 39 300 39C299.45 39 299 38.775 299 38.5C299 38.225 298.55 38 298 38C297.45 38 297 37.775 297 37.5C297 37.225 296.55 37 296 37C295.45 37 295 36.775 295 36.5C295 36.225 294.55 36 294 36C293.45 36 293 35.775 293 35.5C293 35.225 292.325 35 291.5 35C290.675 35 290 34.775 290 34.5C290 34.225 289.1 34 288 34C286.9 34 286 33.775 286 33.5C286 33.222 284.666 33 283 33C281.334 33 280 32.778 280 32.5C280 32.17 262.667 32 229 32C195.333 32 178 32.17 178 32.5C178 32.778 176.666 33 175 33C173.334 33 172 33.222 172 33.5C172 33.775 171.325 34 170.5 34C169.675 34 169 34.225 169 34.5C169 34.775 168.325 35 167.5 35C166.675 35 166 35.225 166 35.5C166 35.775 165.325 36 164.5 36C163.675 36 163 36.225 163 36.5C163 36.775 162.55 37 162 37C161.45 37 161 37.225 161 37.5C161 37.775 160.55 38 160 38C159.45 38 159 38.225 159 38.5C159 38.775 158.6 39 158.111 39C157.621 39 156.896 39.45 156.5 40C156.104 40.55 155.428 41 155 41C154.572 41 153.896 41.45 153.5 42C153.104 42.55 152.474 43 152.1 43C151.727 43 150.557 43.9 149.5 45C148.443 46.1 147.325 47 147.016 47C146.291 47 144 49.2855 144 50.0095C144 50.315 142.875 51.6605 141.5 53C140.125 54.3395 139 55.697 139 56.017C139 56.337 138.325 57.2295 137.5 58C136.675 58.7705 136 59.6705 136 60C136 60.3295 135.325 61.2295 134.5 62C133.675 62.7705 133 63.6705 133 64C133 64.3295 132.325 65.2295 131.5 66C130.675 66.7705 130 67.6705 130 68C130 68.3295 129.325 69.2295 128.5 70C127.675 70.7705 127 71.6705 127 72C127 72.3295 126.325 73.2295 125.5 74C124.675 74.7705 124 75.6705 124 76C124 76.3295 123.325 77.2295 122.5 78L121 79.401V162.701C121 236.634 121.085 246 121.755 246C122.598 246 136 259.19 136 260.02C136 260.311 137.575 262.102 139.5 264C141.425 265.898 143 267.702 143 268.008C143 268.314 144.125 269.661 145.5 271C146.875 272.339 148 273.697 148 274.017C148 274.337 148.675 275.229 149.5 276C150.325 276.771 151 277.666 151 277.99C151 278.314 151.9 279.443 153 280.5C154.1 281.557 155 282.686 155 283.01C155 283.334 155.675 284.229 156.5 285C157.325 285.771 158 286.671 158 287C158 287.329 158.675 288.229 159.5 289C160.325 289.771 161 290.671 161 291C161 291.329 161.675 292.229 162.5 293C163.325 293.771 164 294.711 164 295.09C164 295.469 164.45 296.104 165 296.5C165.55 296.896 166 297.531 166 297.91C166 298.289 166.675 299.229 167.5 300C168.325 300.771 169 301.711 169 302.09C169 302.469 169.45 303.104 170 303.5C170.55 303.896 171 304.572 171 305C171 305.428 171.45 306.104 172 306.5C172.55 306.896 173 307.572 173 308C173 308.428 173.45 309.104 174 309.5C174.55 309.896 175 310.531 175 310.91C175 311.289 175.675 312.229 176.5 313C177.325 313.771 178 314.711 178 315.09C178 315.469 178.45 316.104 179 316.5C179.55 316.896 180 317.572 180 318C180 318.428 180.45 319.104 181 319.5C181.55 319.896 182 320.572 182 321C182 321.428 182.45 322.104 183 322.5C183.55 322.896 184 323.572 184 324C184 324.428 184.45 325.104 185 325.5C185.55 325.896 186 326.621 186 327.111C186 327.6 186.225 328 186.5 328C186.775 328 187 328.4 187 328.889C187 329.379 187.45 330.104 188 330.5C188.55 330.896 189 331.572 189 332C189 332.428 189.45 333.104 190 333.5C190.55 333.896 191 334.572 191 335C191 335.428 191.45 336.104 192 336.5C192.55 336.896 193 337.572 193 338C193 338.428 193.45 339.104 194 339.5C194.55 339.896 195 340.621 195 341.111C195 341.6 195.225 342 195.5 342C195.775 342 196 342.4 196 342.889C196 343.379 196.45 344.104 197 344.5C197.55 344.896 198 345.572 198 346C198 346.428 198.45 347.104 199 347.5C199.55 347.896 200 348.621 200 349.111C200 349.6 200.225 350 200.5 350C200.775 350 201 350.4 201 350.889C201 351.379 201.45 352.104 202 352.5C202.55 352.896 203 353.572 203 354C203 354.428 203.45 355.104 204 355.5C204.55 355.896 205 356.621 205 357.11C205 357.599 205.225 358 205.5 358C205.775 358 206 358.401 206 358.89C206 359.379 206.45 360.104 207 360.5C207.55 360.896 208 361.572 208 362C208 362.428 208.45 363.104 209 363.5C209.55 363.896 210 364.621 210 365.11C210 365.599 210.225 366 210.5 366C210.775 366 211 366.401 211 366.89C211 367.379 211.45 368.104 212 368.5C212.55 368.896 213 369.621 213 370.11C213 370.599 213.225 371 213.5 371C213.775 371 214 371.401 214 371.89C214 372.379 214.45 373.104 215 373.5C215.55 373.896 216 374.621 216 375.11C216 375.599 216.225 376 216.5 376C216.775 376 217 376.401 217 376.89C217 377.379 217.45 378.104 218 378.5C218.55 378.896 219 379.621 219 380.11C219 380.599 219.225 381 219.5 381C219.775 381 220 381.401 220 381.89C220 382.379 220.45 383.104 221 383.5C221.55 383.896 222 384.621 222 385.11C222 385.599 222.225 386 222.5 386C222.775 386 223 386.401 223 386.89C223 387.379 223.45 388.104 224 388.5C224.55 388.896 225 389.621 225 390.11C225 390.599 225.225 391 225.5 391C225.775 391 226 391.45 226 392C226 392.55 226.225 393 226.5 393C226.775 393 227 393.401 227 393.89C227 394.379 227.45 395.104 228 395.5C228.55 395.896 229 396.621 229 397.11C229 397.599 229.225 398 229.5 398C229.775 398 230 398.401 230 398.89C230 399.379 230.45 400.104 231 400.5C231.55 400.896 232 401.621 232 402.11C232 402.599 232.225 403 232.5 403C232.775 403 233 403.45 233 404C233 404.55 233.225 405 233.5 405C233.775 405 234 405.401 234 405.89C234 406.379 234.45 407.104 235 407.5C235.55 407.896 236 408.621 236 409.11C236 409.599 236.225 410 236.5 410C236.775 410 237 410.347 237 410.772C237 411.773 239.227 414 240.228 414C240.653 414 241 414.225 241 414.5C241 414.775 241.45 415 242 415C242.55 415 243 415.225 243 415.5C243 415.778 244.334 416 246 416C247.666 416 249 415.778 249 415.5ZM89 156.5V47H60.5H32V156.5V266H60.5H89V156.5Z" fill="black"/>
</svg>
