<svg width="446" height="448" viewBox="0 0 446 448" fill="none" xmlns="http://www.w3.org/2000/svg">
<path fill-rule="evenodd" clip-rule="evenodd" d="M240 0.5C240 0.775 238.875 1 237.5 1C236.125 1 235 1.225 235 1.5C235 1.775 234.325 2 233.5 2C232.675 2 232 2.225 232 2.5C232 2.775 231.325 3 230.5 3C229.675 3 229 3.225 229 3.5C229 3.775 228.55 4 228 4C227.45 4 227 4.225 227 4.5C227 4.775 226.6 5 226.111 5C225.621 5 224.896 5.45 224.5 6C224.104 6.55 223.428 7 223 7C222.572 7 221.896 7.45 221.5 8C221.104 8.55 220.488 9 220.132 9C219.287 9 212 16.287 212 17.1315C212 17.488 211.55 18.1035 211 18.5C210.45 18.8965 210 19.5715 210 20C210 20.4285 209.55 21.1035 209 21.5C208.45 21.8965 208 22.621 208 23.1105C208 23.5995 207.775 24 207.5 24C207.225 24 207 24.45 207 25C207 25.55 206.775 26 206.5 26C206.225 26 206 26.45 206 27C206 27.55 205.775 28 205.5 28C205.225 28 205 28.4005 205 28.8895C205 29.379 204.55 30.1035 204 30.5C203.45 30.8965 203 31.621 203 32.1105C203 32.5995 202.775 33 202.5 33C202.225 33 202 33.45 202 34C202 34.55 201.775 35 201.5 35C201.225 35 201 35.4005 201 35.8895C201 36.379 200.55 37.1035 200 37.5C199.45 37.8965 199 38.621 199 39.1105C199 39.5995 198.775 40 198.5 40C198.225 40 198 40.45 198 41C198 41.55 197.775 42 197.5 42C197.225 42 197 42.4005 197 42.8895C197 43.379 196.55 44.1035 196 44.5C195.45 44.8965 195 45.621 195 46.1105C195 46.5995 194.775 47 194.5 47C194.225 47 194 47.4005 194 47.8895C194 48.379 193.55 49.1035 193 49.5C192.45 49.8965 192 50.621 192 51.1105C192 51.5995 191.775 52 191.5 52C191.225 52 191 52.45 191 53C191 53.55 190.775 54 190.5 54C190.225 54 190 54.4005 190 54.8895C190 55.379 189.55 56.1035 189 56.5C188.45 56.8965 188 57.5715 188 58C188 58.4285 187.55 59.1035 187 59.5C186.45 59.8965 186 60.621 186 61.1105C186 61.5995 185.775 62 185.5 62C185.225 62 185 62.4005 185 62.8895C185 63.379 184.55 64.1035 184 64.5C183.45 64.8965 183 65.621 183 66.1105C183 66.5995 182.775 67 182.5 67C182.225 67 182 67.4005 182 67.8895C182 68.379 181.55 69.1035 181 69.5C180.45 69.8965 180 70.621 180 71.1105C180 71.5995 179.775 72 179.5 72C179.225 72 179 72.4005 179 72.8895C179 73.379 178.55 74.1035 178 74.5C177.45 74.8965 177 75.5715 177 76C177 76.4285 176.55 77.1035 176 77.5C175.45 77.8965 175 78.5715 175 79C175 79.4285 174.55 80.1035 174 80.5C173.45 80.8965 173 81.5715 173 82C173 82.4285 172.55 83.1035 172 83.5C171.45 83.8965 171 84.621 171 85.1105C171 85.5995 170.775 86 170.5 86C170.225 86 170 86.4005 170 86.8895C170 87.379 169.55 88.1035 169 88.5C168.45 88.8965 168 89.5715 168 90C168 90.4285 167.55 91.1035 167 91.5C166.45 91.8965 166 92.5715 166 93C166 93.4285 165.55 94.1035 165 94.5C164.45 94.8965 164 95.5715 164 96C164 96.4285 163.55 97.1035 163 97.5C162.45 97.8965 162 98.5715 162 99C162 99.4285 161.55 100.104 161 100.5C160.45 100.896 160 101.572 160 102C160 102.428 159.55 103.104 159 103.5C158.45 103.896 158 104.572 158 105C158 105.428 157.55 106.104 157 106.5C156.45 106.896 156 107.572 156 108C156 108.428 155.55 109.104 155 109.5C154.45 109.896 154 110.531 154 110.91C154 111.289 153.325 112.229 152.5 113C151.675 113.771 151 114.711 151 115.09C151 115.469 150.55 116.104 150 116.5C149.45 116.896 149 117.572 149 118C149 118.428 148.55 119.104 148 119.5C147.45 119.896 147 120.531 147 120.91C147 121.289 146.325 122.229 145.5 123C144.675 123.771 144 124.711 144 125.09C144 125.469 143.55 126.104 143 126.5C142.45 126.896 142 127.531 142 127.91C142 128.289 141.325 129.229 140.5 130C139.675 130.771 139 131.711 139 132.09C139 132.469 138.55 133.104 138 133.5C137.45 133.896 137 134.531 137 134.91C137 135.289 136.325 136.229 135.5 137C134.675 137.771 134 138.671 134 139C134 139.329 133.325 140.229 132.5 141C131.675 141.771 131 142.671 131 143C131 143.329 130.325 144.229 129.5 145C128.675 145.771 128 146.671 128 147C128 147.329 127.325 148.229 126.5 149C125.675 149.771 125 150.671 125 151C125 151.329 124.325 152.229 123.5 153C122.675 153.771 122 154.658 122 154.973C122 155.815 119.67 158 118.773 158C118.348 158 118 157.655 118 157.234C118 156.298 114.788 153 113.877 153C113.516 153 112.896 152.55 112.5 152C112.076 151.413 111.205 151 110.389 151C109.625 151 109 150.775 109 150.5C109 150.17 92.3335 150 60 150C27.6665 150 11 150.17 11 150.5C11 150.775 10.55 151 10 151C9.45 151 9 151.225 9 151.5C9 151.775 8.6575 152 8.239 152C7.8205 152 6.2455 153.232 4.739 154.739C3.2325 156.245 2 157.82 2 158.239C2 158.657 1.775 159 1.5 159C1.225 159 1 159.675 1 160.5C1 161.325 0.775 162 0.5 162C0.168 162 0 205.5 0 291.5C0 377.5 0.168 421 0.5 421C0.775 421 1 421.675 1 422.5C1 423.325 1.225 424 1.5 424C1.775 424 2 424.342 2 424.761C2 425.751 7.249 431 8.239 431C8.6575 431 9 431.225 9 431.5C9 431.775 9.45 432 10 432C10.55 432 11 432.225 11 432.5C11 432.83 27.6665 433 60 433C92.3335 433 109 432.83 109 432.5C109 432.225 109.625 432 110.389 432C111.205 432 112.076 431.587 112.5 431C112.896 430.45 113.519 430 113.883 430C114.741 430 117 427.741 117 426.883C117 426.519 117.45 425.896 118 425.5C118.55 425.104 119 424.379 119 423.889C119 423.4 119.225 423 119.5 423C119.775 423 120 422.325 120 421.5C120 420.675 120.125 420 120.277 420C120.43 420 121.88 421.35 123.5 423C125.12 424.65 126.7 426 127.012 426C127.324 426 128.443 426.9 129.5 428C130.557 429.1 131.686 430 132.01 430C132.334 430 133.229 430.675 134 431.5C134.771 432.325 135.711 433 136.09 433C136.469 433 137.104 433.45 137.5 434C137.896 434.55 138.621 435 139.111 435C139.6 435 140 435.225 140 435.5C140 435.775 140.45 436 141 436C141.55 436 142 436.225 142 436.5C142 436.775 142.45 437 143 437C143.55 437 144 437.225 144 437.5C144 437.775 144.45 438 145 438C145.55 438 146 438.225 146 438.5C146 438.775 146.45 439 147 439C147.55 439 148 439.225 148 439.5C148 439.775 148.45 440 149 440C149.55 440 150 440.225 150 440.5C150 440.775 150.45 441 151 441C151.55 441 152 441.225 152 441.5C152 441.775 152.675 442 153.5 442C154.325 442 155 442.225 155 442.5C155 442.775 155.675 443 156.5 443C157.325 443 158 443.225 158 443.5C158 443.775 158.675 444 159.5 444C160.325 444 161 444.225 161 444.5C161 444.775 161.9 445 163 445C164.1 445 165 445.225 165 445.5C165 445.775 165.9 446 167 446C168.1 446 169 446.225 169 446.5C169 446.785 170.5 447 172.5 447C174.5 447 176 447.215 176 447.5C176 447.83 194 448 229 448C264 448 282 447.83 282 447.5C282 447.215 283.5 447 285.5 447C287.5 447 289 446.785 289 446.5C289 446.225 290.125 446 291.5 446C292.875 446 294 445.775 294 445.5C294 445.225 294.9 445 296 445C297.1 445 298 444.775 298 444.5C298 444.225 298.675 444 299.5 444C300.325 444 301 443.775 301 443.5C301 443.225 301.675 443 302.5 443C303.325 443 304 442.775 304 442.5C304 442.225 304.45 442 305 442C305.55 442 306 441.775 306 441.5C306 441.225 306.675 441 307.5 441C308.325 441 309 440.775 309 440.5C309 440.225 309.45 440 310 440C310.55 440 311 439.775 311 439.5C311 439.225 311.45 439 312 439C312.55 439 313 438.775 313 438.5C313 438.225 313.45 438 314 438C314.55 438 315 437.775 315 437.5C315 437.225 315.4 437 315.889 437C316.379 437 317.104 436.55 317.5 436C317.896 435.45 318.572 435 319 435C319.428 435 320.104 434.55 320.5 434C320.896 433.45 321.572 433 322 433C322.428 433 323.104 432.55 323.5 432C323.896 431.45 324.531 431 324.91 431C325.289 431 326.229 430.325 327 429.5C327.771 428.675 328.651 428 328.956 428C329.674 428 341 416.684 341 415.966C341 415.667 341.9 414.557 343 413.5C344.1 412.443 345 411.273 345 410.9C345 410.526 345.45 409.896 346 409.5C346.55 409.104 347 408.428 347 408C347 407.572 347.45 406.896 348 406.5C348.55 406.104 349 405.428 349 405C349 404.572 349.45 403.896 350 403.5C350.55 403.104 351 402.428 351 402C351 401.572 351.45 400.896 352 400.5C352.55 400.104 353 399.428 353 399C353 398.572 353.45 397.896 354 397.5C354.55 397.104 355 396.428 355 396C355 395.572 355.45 394.896 356 394.5C356.55 394.104 357 393.428 357 393C357 392.572 357.45 391.896 358 391.5C358.55 391.104 359 390.428 359 390C359 389.572 359.45 388.896 360 388.5C360.55 388.104 361 387.428 361 387C361 386.572 361.45 385.896 362 385.5C362.55 385.104 363 384.428 363 384C363 383.572 363.45 382.896 364 382.5C364.55 382.104 365 381.428 365 381C365 380.572 365.45 379.896 366 379.5C366.55 379.104 367 378.428 367 378C367 377.572 367.45 376.896 368 376.5C368.55 376.104 369 375.428 369 375C369 374.572 369.45 373.896 370 373.5C370.55 373.104 371 372.428 371 372C371 371.572 371.45 370.896 372 370.5C372.55 370.104 373 369.428 373 369C373 368.572 373.45 367.896 374 367.5C374.55 367.104 375 366.428 375 366C375 365.572 375.45 364.896 376 364.5C376.55 364.104 377 363.428 377 363C377 362.572 377.45 361.896 378 361.5C378.55 361.104 379 360.428 379 360C379 359.572 379.45 358.896 380 358.5C380.55 358.104 381 357.428 381 357C381 356.572 381.45 355.896 382 355.5C382.55 355.104 383 354.428 383 354C383 353.572 383.45 352.896 384 352.5C384.55 352.104 385 351.428 385 351C385 350.572 385.45 349.896 386 349.5C386.55 349.104 387 348.428 387 348C387 347.572 387.45 346.896 388 346.5C388.55 346.104 389 345.428 389 345C389 344.572 389.45 343.896 390 343.5C390.55 343.104 391 342.428 391 342C391 341.572 391.45 340.896 392 340.5C392.55 340.104 393 339.428 393 339C393 338.572 393.45 337.896 394 337.5C394.55 337.104 395 336.428 395 336C395 335.572 395.45 334.896 396 334.5C396.55 334.104 397 333.428 397 333C397 332.572 397.45 331.896 398 331.5C398.55 331.104 399 330.428 399 330C399 329.572 399.45 328.896 400 328.5C400.55 328.104 401 327.428 401 327C401 326.572 401.45 325.896 402 325.5C402.55 325.104 403 324.428 403 324C403 323.572 403.45 322.896 404 322.5C404.55 322.104 405 321.428 405 321C405 320.572 405.45 319.896 406 319.5C406.55 319.104 407 318.428 407 318C407 317.572 407.45 316.896 408 316.5C408.55 316.104 409 315.428 409 315C409 314.572 409.45 313.896 410 313.5C410.55 313.104 411 312.428 411 312C411 311.572 411.45 310.896 412 310.5C412.55 310.104 413 309.428 413 309C413 308.572 413.45 307.896 414 307.5C414.55 307.104 415 306.428 415 306C415 305.572 415.45 304.896 416 304.5C416.55 304.104 417 303.428 417 303C417 302.572 417.45 301.896 418 301.5C418.55 301.104 419 300.428 419 300C419 299.572 419.45 298.896 420 298.5C420.55 298.104 421 297.428 421 297C421 296.572 421.45 295.896 422 295.5C422.55 295.104 423 294.428 423 294C423 293.572 423.45 292.896 424 292.5C424.55 292.104 425 291.428 425 291C425 290.572 425.45 289.896 426 289.5C426.55 289.104 427 288.428 427 288C427 287.572 427.45 286.896 428 286.5C428.55 286.104 429 285.428 429 285C429 284.572 429.45 283.896 430 283.5C430.55 283.104 431 282.428 431 282C431 281.572 431.45 280.896 432 280.5C432.55 280.104 433 279.428 433 279C433 278.572 433.45 277.896 434 277.5C434.55 277.104 435 276.379 435 275.889C435 275.4 435.225 275 435.5 275C435.775 275 436 274.6 436 274.111C436 273.621 436.45 272.896 437 272.5C437.55 272.104 438 271.379 438 270.889C438 270.4 438.225 270 438.5 270C438.775 270 439 269.325 439 268.5C439 267.675 439.225 267 439.5 267C439.775 267 440 266.55 440 266C440 265.45 440.225 265 440.5 265C440.775 265 441 264.55 441 264C441 263.45 441.225 263 441.5 263C441.775 263 442 262.325 442 261.5C442 260.675 442.225 260 442.5 260C442.775 260 443 259.1 443 258C443 256.9 443.225 256 443.5 256C443.775 256 444 255.1 444 254C444 252.9 444.225 252 444.5 252C444.778 252 445 250.666 445 249C445 247.334 445.222 246 445.5 246C445.813 246 446 242.833 446 237.5C446 232.167 445.813 229 445.5 229C445.222 229 445 227.666 445 226C445 224.334 444.778 223 444.5 223C444.225 223 444 221.875 444 220.5C444 219.125 443.775 218 443.5 218C443.225 218 443 217.325 443 216.5C443 215.675 442.775 215 442.5 215C442.225 215 442 214.325 442 213.5C442 212.675 441.775 212 441.5 212C441.225 212 441 211.55 441 211C441 210.45 440.775 210 440.5 210C440.225 210 440 209.325 440 208.5C440 207.675 439.775 207 439.5 207C439.225 207 439 206.55 439 206C439 205.45 438.775 205 438.5 205C438.225 205 438 204.55 438 204C438 203.45 437.775 203 437.5 203C437.225 203 437 202.6 437 202.111C437 201.621 436.55 200.896 436 200.5C435.45 200.104 435 199.428 435 199C435 198.572 434.55 197.896 434 197.5C433.45 197.104 433 196.428 433 196C433 195.572 432.55 194.896 432 194.5C431.45 194.104 431 193.489 431 193.135C431 192.35 418.735 180 417.956 180C417.651 180 416.771 179.325 416 178.5C415.229 177.675 414.289 177 413.91 177C413.531 177 412.896 176.55 412.5 176C412.104 175.45 411.379 175 410.889 175C410.4 175 410 174.775 410 174.5C410 174.225 409.55 174 409 174C408.45 174 408 173.775 408 173.5C408 173.225 407.55 173 407 173C406.45 173 406 172.775 406 172.5C406 172.225 405.55 172 405 172C404.45 172 404 171.775 404 171.5C404 171.225 403.55 171 403 171C402.45 171 402 170.775 402 170.5C402 170.225 401.55 170 401 170C400.45 170 400 169.775 400 169.5C400 169.225 399.325 169 398.5 169C397.675 169 397 168.775 397 168.5C397 168.225 396.325 168 395.5 168C394.675 168 394 167.775 394 167.5C394 167.225 393.1 167 392 167C390.9 167 390 166.775 390 166.5C390 166.225 388.875 166 387.5 166C386.125 166 385 165.775 385 165.5C385 165.17 368.5 165 336.5 165H288V162C288 160.334 288.222 159 288.5 159C288.775 159 289 158.1 289 157C289 155.9 289.225 155 289.5 155C289.775 155 290 153.875 290 152.5C290 151.125 290.225 150 290.5 150C290.775 150 291 149.1 291 148C291 146.9 291.225 146 291.5 146C291.775 146 292 144.875 292 143.5C292 142.125 292.225 141 292.5 141C292.775 141 293 140.1 293 139C293 137.9 293.225 137 293.5 137C293.775 137 294 135.875 294 134.5C294 133.125 294.225 132 294.5 132C294.775 132 295 131.1 295 130C295 128.9 295.225 128 295.5 128C295.775 128 296 126.875 296 125.5C296 124.125 296.225 123 296.5 123C296.775 123 297 122.1 297 121C297 119.9 297.225 119 297.5 119C297.775 119 298 117.875 298 116.5C298 115.125 298.225 114 298.5 114C298.775 114 299 113.1 299 112C299 110.9 299.225 110 299.5 110C299.775 110 300 108.875 300 107.5C300 106.125 300.225 105 300.5 105C300.775 105 301 104.1 301 103C301 101.9 301.225 101 301.5 101C301.775 101 302 99.875 302 98.5C302 97.125 302.225 96 302.5 96C302.775 96 303 95.1 303 94C303 92.9 303.225 92 303.5 92C303.775 92 304 90.875 304 89.5C304 88.125 304.225 87 304.5 87C304.775 87 305 86.1 305 85C305 83.9 305.225 83 305.5 83C305.775 83 306 81.875 306 80.5C306 79.125 306.225 78 306.5 78C306.775 78 307 76.875 307 75.5C307 74.125 307.225 73 307.5 73C307.813 73 308 69.8335 308 64.5C308 59.1665 307.813 56 307.5 56C307.225 56 307 54.875 307 53.5C307 52.125 306.775 51 306.5 51C306.225 51 306 50.325 306 49.5C306 48.675 305.775 48 305.5 48C305.225 48 305 47.325 305 46.5C305 45.675 304.775 45 304.5 45C304.225 45 304 44.325 304 43.5C304 42.675 303.775 42 303.5 42C303.225 42 303 41.55 303 41C303 40.45 302.775 40 302.5 40C302.225 40 302 39.55 302 39C302 38.45 301.775 38 301.5 38C301.225 38 301 37.55 301 37C301 36.45 300.775 36 300.5 36C300.225 36 300 35.5995 300 35.1105C300 34.621 299.55 33.8965 299 33.5C298.45 33.1035 298 32.469 298 32.09C298 31.7115 297.325 30.7705 296.5 30C295.675 29.2295 295 28.348 295 28.0415C295 27.314 287.686 20 286.958 20C286.652 20 285.771 19.325 285 18.5C284.229 17.675 283.329 17 283 17C282.671 17 281.771 16.325 281 15.5C280.229 14.675 279.329 14 279 14C278.671 14 277.771 13.325 277 12.5C276.229 11.675 275.329 11 275 11C274.671 11 273.771 10.325 273 9.5C272.229 8.675 271.289 8 270.91 8C270.531 8 269.896 7.55 269.5 7C269.104 6.45 268.379 6 267.889 6C267.4 6 267 5.775 267 5.5C267 5.225 266.55 5 266 5C265.45 5 265 4.775 265 4.5C265 4.225 264.55 4 264 4C263.45 4 263 3.775 263 3.5C263 3.225 262.55 3 262 3C261.45 3 261 2.775 261 2.5C261 2.225 260.1 2 259 2C257.9 2 257 1.775 257 1.5C257 1.225 255.875 1 254.5 1C253.125 1 252 0.775 252 0.5C252 0.1945 249.667 0 246 0C242.333 0 240 0.1945 240 0.5ZM249 32.5C249 32.775 249.45 33 250 33C250.55 33 251 33.225 251 33.5C251 33.775 251.4 34 251.889 34C252.379 34 253.104 34.45 253.5 35C253.896 35.55 254.531 36 254.91 36C255.289 36 256.229 36.675 257 37.5C257.771 38.325 258.671 39 259 39C259.329 39 260.229 39.675 261 40.5C261.771 41.325 262.666 42 262.99 42C263.313 42 264.443 42.9 265.5 44C266.557 45.1 267.776 46 268.211 46C268.645 46 269 46.3595 269 46.7995C269 47.239 269.675 48.2295 270.5 49C271.325 49.7705 272 50.7115 272 51.09C272 51.469 272.45 52.1035 273 52.5C273.587 52.9235 274 53.7945 274 54.6105C274 55.3745 274.225 56 274.5 56C274.775 56 275 56.675 275 57.5C275 58.325 275.225 59 275.5 59C275.803 59 276 61.1665 276 64.5C276 67.8335 275.803 70 275.5 70C275.225 70 275 71.125 275 72.5C275 73.875 274.775 75 274.5 75C274.225 75 274 75.9 274 77C274 78.1 273.775 79 273.5 79C273.225 79 273 80.125 273 81.5C273 82.875 272.775 84 272.5 84C272.225 84 272 84.9 272 86C272 87.1 271.775 88 271.5 88C271.225 88 271 89.125 271 90.5C271 91.875 270.775 93 270.5 93C270.225 93 270 93.9 270 95C270 96.1 269.775 97 269.5 97C269.225 97 269 98.125 269 99.5C269 100.875 268.775 102 268.5 102C268.225 102 268 102.9 268 104C268 105.1 267.775 106 267.5 106C267.225 106 267 107.125 267 108.5C267 109.875 266.775 111 266.5 111C266.225 111 266 111.9 266 113C266 114.1 265.775 115 265.5 115C265.225 115 265 116.125 265 117.5C265 118.875 264.775 120 264.5 120C264.225 120 264 120.9 264 122C264 123.1 263.775 124 263.5 124C263.225 124 263 125.125 263 126.5C263 127.875 262.775 129 262.5 129C262.225 129 262 129.9 262 131C262 132.1 261.775 133 261.5 133C261.225 133 261 134.125 261 135.5C261 136.875 260.775 138 260.5 138C260.225 138 260 138.9 260 140C260 141.1 259.775 142 259.5 142C259.225 142 259 143.125 259 144.5C259 145.875 258.775 147 258.5 147C258.225 147 258 147.9 258 149C258 150.1 257.775 151 257.5 151C257.225 151 257 152.125 257 153.5C257 154.875 256.775 156 256.5 156C256.225 156 256 156.9 256 158C256 159.1 255.775 160 255.5 160C255.225 160 255 161.125 255 162.5C255 163.875 254.775 165 254.5 165C254.225 165 254 165.9 254 167C254 168.1 253.775 169 253.5 169C253.225 169 253 170.125 253 171.5C253 172.875 252.775 174 252.5 174C252.225 174 252 175.125 252 176.5C252 177.875 251.775 179 251.5 179C251.225 179 251 179.675 251 180.5C251 181.325 251.225 182 251.5 182C251.775 182 252 182.9 252 184C252 185.1 252.225 186 252.5 186C252.775 186 253 186.45 253 187C253 187.55 253.225 188 253.5 188C253.775 188 254 188.344 254 188.763C254 189.756 258.244 194 259.237 194C259.656 194 260 194.225 260 194.5C260 194.775 260.45 195 261 195C261.55 195 262 195.225 262 195.5C262 195.775 262.9 196 264 196C265.1 196 266 196.225 266 196.5C266 196.831 285.667 197 324 197C362.333 197 382 197.169 382 197.5C382 197.775 382.9 198 384 198C385.1 198 386 198.225 386 198.5C386 198.775 386.45 199 387 199C387.55 199 388 199.225 388 199.5C388 199.775 388.675 200 389.5 200C390.325 200 391 200.225 391 200.5C391 200.775 391.4 201 391.889 201C392.379 201 393.104 201.45 393.5 202C393.896 202.55 394.572 203 395 203C395.428 203 396.104 203.45 396.5 204C396.896 204.55 397.512 205 397.868 205C398.224 205 400.2 206.684 402.258 208.742C404.316 210.8 406 212.776 406 213.132C406 213.488 406.45 214.104 407 214.5C407.55 214.896 408 215.621 408 216.111C408 216.6 408.225 217 408.5 217C408.775 217 409 217.45 409 218C409 218.55 409.225 219 409.5 219C409.775 219 410 219.45 410 220C410 220.55 410.225 221 410.5 221C410.775 221 411 221.45 411 222C411 222.55 411.225 223 411.5 223C411.775 223 412 223.675 412 224.5C412 225.325 412.225 226 412.5 226C412.775 226 413 227.125 413 228.5C413 229.875 413.225 231 413.5 231C413.808 231 414 233.5 414 237.5C414 241.5 413.808 244 413.5 244C413.225 244 413 245.125 413 246.5C413 247.875 412.775 249 412.5 249C412.225 249 412 249.675 412 250.5C412 251.325 411.775 252 411.5 252C411.225 252 411 252.45 411 253C411 253.55 410.775 254 410.5 254C410.225 254 410 254.45 410 255C410 255.55 409.775 256 409.5 256C409.225 256 409 256.45 409 257C409 257.55 408.775 258 408.5 258C408.225 258 408 258.4 408 258.889C408 259.379 407.55 260.104 407 260.5C406.45 260.896 406 261.572 406 262C406 262.428 405.55 263.104 405 263.5C404.45 263.896 404 264.572 404 265C404 265.428 403.55 266.104 403 266.5C402.45 266.896 402 267.572 402 268C402 268.428 401.55 269.104 401 269.5C400.45 269.896 400 270.572 400 271C400 271.428 399.55 272.104 399 272.5C398.45 272.896 398 273.572 398 274C398 274.428 397.55 275.104 397 275.5C396.45 275.896 396 276.572 396 277C396 277.428 395.55 278.104 395 278.5C394.45 278.896 394 279.572 394 280C394 280.428 393.55 281.104 393 281.5C392.45 281.896 392 282.572 392 283C392 283.428 391.55 284.104 391 284.5C390.45 284.896 390 285.572 390 286C390 286.428 389.55 287.104 389 287.5C388.45 287.896 388 288.572 388 289C388 289.428 387.55 290.104 387 290.5C386.45 290.896 386 291.572 386 292C386 292.428 385.55 293.104 385 293.5C384.45 293.896 384 294.572 384 295C384 295.428 383.55 296.104 383 296.5C382.45 296.896 382 297.572 382 298C382 298.428 381.55 299.104 381 299.5C380.45 299.896 380 300.572 380 301C380 301.428 379.55 302.104 379 302.5C378.45 302.896 378 303.572 378 304C378 304.428 377.55 305.104 377 305.5C376.45 305.896 376 306.572 376 307C376 307.428 375.55 308.104 375 308.5C374.45 308.896 374 309.572 374 310C374 310.428 373.55 311.104 373 311.5C372.45 311.896 372 312.572 372 313C372 313.428 371.55 314.104 371 314.5C370.45 314.896 370 315.572 370 316C370 316.428 369.55 317.104 369 317.5C368.45 317.896 368 318.572 368 319C368 319.428 367.55 320.104 367 320.5C366.45 320.896 366 321.572 366 322C366 322.428 365.55 323.104 365 323.5C364.45 323.896 364 324.572 364 325C364 325.428 363.55 326.104 363 326.5C362.45 326.896 362 327.572 362 328C362 328.428 361.55 329.104 361 329.5C360.45 329.896 360 330.572 360 331C360 331.428 359.55 332.104 359 332.5C358.45 332.896 358 333.572 358 334C358 334.428 357.55 335.104 357 335.5C356.45 335.896 356 336.572 356 337C356 337.428 355.55 338.104 355 338.5C354.45 338.896 354 339.572 354 340C354 340.428 353.55 341.104 353 341.5C352.45 341.896 352 342.572 352 343C352 343.428 351.55 344.104 351 344.5C350.45 344.896 350 345.572 350 346C350 346.428 349.55 347.104 349 347.5C348.45 347.896 348 348.572 348 349C348 349.428 347.55 350.104 347 350.5C346.45 350.896 346 351.572 346 352C346 352.428 345.55 353.104 345 353.5C344.45 353.896 344 354.572 344 355C344 355.428 343.55 356.104 343 356.5C342.45 356.896 342 357.572 342 358C342 358.428 341.55 359.104 341 359.5C340.45 359.896 340 360.572 340 361C340 361.428 339.55 362.104 339 362.5C338.45 362.896 338 363.572 338 364C338 364.428 337.55 365.104 337 365.5C336.45 365.896 336 366.572 336 367C336 367.428 335.55 368.104 335 368.5C334.45 368.896 334 369.572 334 370C334 370.428 333.55 371.104 333 371.5C332.45 371.896 332 372.572 332 373C332 373.428 331.55 374.104 331 374.5C330.45 374.896 330 375.572 330 376C330 376.428 329.55 377.104 329 377.5C328.45 377.896 328 378.572 328 379C328 379.428 327.55 380.104 327 380.5C326.45 380.896 326 381.531 326 381.91C326 382.289 325.325 383.229 324.5 384C323.675 384.771 323 385.711 323 386.09C323 386.469 322.55 387.104 322 387.5C321.45 387.896 321 388.572 321 389C321 389.428 320.55 390.104 320 390.5C319.45 390.896 319 391.531 319 391.91C319 392.289 318.325 393.229 317.5 394C316.675 394.771 316 395.652 316 395.96C316 396.688 309.688 403 308.96 403C308.652 403 307.771 403.675 307 404.5C306.229 405.325 305.289 406 304.91 406C304.531 406 303.896 406.45 303.5 407C303.104 407.55 302.379 408 301.889 408C301.4 408 301 408.225 301 408.5C301 408.775 300.55 409 300 409C299.45 409 299 409.225 299 409.5C299 409.775 298.55 410 298 410C297.45 410 297 410.225 297 410.5C297 410.775 296.55 411 296 411C295.45 411 295 411.225 295 411.5C295 411.775 294.55 412 294 412C293.45 412 293 412.225 293 412.5C293 412.775 292.325 413 291.5 413C290.675 413 290 413.225 290 413.5C290 413.775 289.1 414 288 414C286.9 414 286 414.225 286 414.5C286 414.778 284.666 415 283 415C281.334 415 280 415.222 280 415.5C280 415.83 262.667 416 229 416C195.333 416 178 415.83 178 415.5C178 415.222 176.666 415 175 415C173.334 415 172 414.778 172 414.5C172 414.225 171.325 414 170.5 414C169.675 414 169 413.775 169 413.5C169 413.225 168.325 413 167.5 413C166.675 413 166 412.775 166 412.5C166 412.225 165.325 412 164.5 412C163.675 412 163 411.775 163 411.5C163 411.225 162.55 411 162 411C161.45 411 161 410.775 161 410.5C161 410.225 160.55 410 160 410C159.45 410 159 409.775 159 409.5C159 409.225 158.6 409 158.111 409C157.621 409 156.896 408.55 156.5 408C156.104 407.45 155.428 407 155 407C154.572 407 153.896 406.55 153.5 406C153.104 405.45 152.474 405 152.1 405C151.727 405 150.557 404.1 149.5 403C148.443 401.9 147.325 401 147.016 401C146.291 401 144 398.715 144 397.991C144 397.685 142.875 396.339 141.5 395C140.125 393.661 139 392.303 139 391.983C139 391.663 138.325 390.771 137.5 390C136.675 389.229 136 388.329 136 388C136 387.671 135.325 386.771 134.5 386C133.675 385.229 133 384.329 133 384C133 383.671 132.325 382.771 131.5 382C130.675 381.229 130 380.329 130 380C130 379.671 129.325 378.771 128.5 378C127.675 377.229 127 376.329 127 376C127 375.671 126.325 374.771 125.5 374C124.675 373.229 124 372.329 124 372C124 371.671 123.325 370.771 122.5 370L121 368.599V285.299C121 211.366 121.085 202 121.755 202C122.598 202 136 188.81 136 187.98C136 187.689 137.575 185.898 139.5 184C141.425 182.102 143 180.298 143 179.992C143 179.686 144.125 178.339 145.5 177C146.875 175.661 148 174.303 148 173.983C148 173.663 148.675 172.771 149.5 172C150.325 171.229 151 170.334 151 170.01C151 169.686 151.9 168.557 153 167.5C154.1 166.443 155 165.314 155 164.99C155 164.666 155.675 163.771 156.5 163C157.325 162.229 158 161.329 158 161C158 160.671 158.675 159.771 159.5 159C160.325 158.229 161 157.329 161 157C161 156.671 161.675 155.771 162.5 155C163.325 154.229 164 153.289 164 152.91C164 152.531 164.45 151.896 165 151.5C165.55 151.104 166 150.469 166 150.09C166 149.711 166.675 148.771 167.5 148C168.325 147.229 169 146.289 169 145.91C169 145.531 169.45 144.896 170 144.5C170.55 144.104 171 143.428 171 143C171 142.572 171.45 141.896 172 141.5C172.55 141.104 173 140.428 173 140C173 139.572 173.45 138.896 174 138.5C174.55 138.104 175 137.469 175 137.09C175 136.711 175.675 135.771 176.5 135C177.325 134.229 178 133.289 178 132.91C178 132.531 178.45 131.896 179 131.5C179.55 131.104 180 130.428 180 130C180 129.572 180.45 128.896 181 128.5C181.55 128.104 182 127.428 182 127C182 126.572 182.45 125.896 183 125.5C183.55 125.104 184 124.428 184 124C184 123.572 184.45 122.896 185 122.5C185.55 122.104 186 121.379 186 120.889C186 120.4 186.225 120 186.5 120C186.775 120 187 119.6 187 119.111C187 118.621 187.45 117.896 188 117.5C188.55 117.104 189 116.428 189 116C189 115.572 189.45 114.896 190 114.5C190.55 114.104 191 113.428 191 113C191 112.572 191.45 111.896 192 111.5C192.55 111.104 193 110.428 193 110C193 109.572 193.45 108.896 194 108.5C194.55 108.104 195 107.379 195 106.889C195 106.4 195.225 106 195.5 106C195.775 106 196 105.6 196 105.111C196 104.621 196.45 103.896 197 103.5C197.55 103.104 198 102.428 198 102C198 101.572 198.45 100.896 199 100.5C199.55 100.104 200 99.379 200 98.8895C200 98.4005 200.225 98 200.5 98C200.775 98 201 97.5995 201 97.1105C201 96.621 201.45 95.8965 202 95.5C202.55 95.1035 203 94.4285 203 94C203 93.5715 203.45 92.8965 204 92.5C204.55 92.1035 205 91.379 205 90.8895C205 90.4005 205.225 90 205.5 90C205.775 90 206 89.5995 206 89.1105C206 88.621 206.45 87.8965 207 87.5C207.55 87.1035 208 86.4285 208 86C208 85.5715 208.45 84.8965 209 84.5C209.55 84.1035 210 83.379 210 82.8895C210 82.4005 210.225 82 210.5 82C210.775 82 211 81.5995 211 81.1105C211 80.621 211.45 79.8965 212 79.5C212.55 79.1035 213 78.379 213 77.8895C213 77.4005 213.225 77 213.5 77C213.775 77 214 76.5995 214 76.1105C214 75.621 214.45 74.8965 215 74.5C215.55 74.1035 216 73.379 216 72.8895C216 72.4005 216.225 72 216.5 72C216.775 72 217 71.5995 217 71.1105C217 70.621 217.45 69.8965 218 69.5C218.55 69.1035 219 68.379 219 67.8895C219 67.4005 219.225 67 219.5 67C219.775 67 220 66.5995 220 66.1105C220 65.621 220.45 64.8965 221 64.5C221.55 64.1035 222 63.379 222 62.8895C222 62.4005 222.225 62 222.5 62C222.775 62 223 61.5995 223 61.1105C223 60.621 223.45 59.8965 224 59.5C224.55 59.1035 225 58.379 225 57.8895C225 57.4005 225.225 57 225.5 57C225.775 57 226 56.55 226 56C226 55.45 226.225 55 226.5 55C226.775 55 227 54.5995 227 54.1105C227 53.621 227.45 52.8965 228 52.5C228.55 52.1035 229 51.379 229 50.8895C229 50.4005 229.225 50 229.5 50C229.775 50 230 49.5995 230 49.1105C230 48.621 230.45 47.8965 231 47.5C231.55 47.1035 232 46.379 232 45.8895C232 45.4005 232.225 45 232.5 45C232.775 45 233 44.55 233 44C233 43.45 233.225 43 233.5 43C233.775 43 234 42.5995 234 42.1105C234 41.621 234.45 40.8965 235 40.5C235.55 40.1035 236 39.379 236 38.8895C236 38.4005 236.225 38 236.5 38C236.775 38 237 37.6525 237 37.2275C237 36.227 239.227 34 240.228 34C240.653 34 241 33.775 241 33.5C241 33.225 241.45 33 242 33C242.55 33 243 32.775 243 32.5C243 32.222 244.334 32 246 32C247.666 32 249 32.222 249 32.5ZM89 291.5V401H60.5H32V291.5V182H60.5H89V291.5Z" fill="black"/>
</svg>
